<svg style="opacity: 0.040;" id="Layer_1" viewBox="0 0 512 512" xmlns="http://www.w3.org/2000/svg" data-name="Layer 1"><path d="m457.586 322.6a125.35 125.35 0 0 0 15.619-37.729l13.695-3.461 16.668-4.2a156.255 156.255 0 0 0 0-42.406l-16.668-4.19-13.691-3.43a125.2 125.2 0 0 0 -15.619-37.758l7.228-12.1 8.816-14.768a156.22 156.22 0 0 0 -29.962-29.962l-14.772 8.811-12.1 7.229a125.3 125.3 0 0 0 -37.729-15.619l-3.458-13.692-4.2-16.667a156.175 156.175 0 0 0 -42.406 0l-4.195 16.667-3.43 13.692a125.163 125.163 0 0 0 -37.757 15.619l-12.1-7.229-14.769-8.815a158.383 158.383 0 0 0 -29.962 29.962l8.816 14.768 7.228 12.1a125.324 125.324 0 0 0 -15.619 37.729l-13.691 3.459-16.668 4.195a155.139 155.139 0 0 0 .028 42.406l16.64 4.2 13.691 3.459a125.324 125.324 0 0 0 15.614 37.73l-7.228 12.1-8.816 14.768a156.273 156.273 0 0 0 29.962 29.963l14.769-8.816 12.1-7.229a125.3 125.3 0 0 0 37.729 15.619l3.458 13.692 4.195 16.667a156.175 156.175 0 0 0 42.406 0l4.2-16.667 3.458-13.692a125.008 125.008 0 0 0 37.734-15.617l12.1 7.229 14.769 8.816a154.177 154.177 0 0 0 29.961-29.963l-8.816-14.77z" fill="#3f5163" fill-rule="evenodd"/><path d="m415.406 321.209a92.192 92.192 0 1 0 -130.393 0 92.155 92.155 0 0 0 130.393 0z" fill="#d5e3f2" fill-rule="evenodd"/><path d="m114.197 59.599h141.137v69.392h-141.137z" fill="#5f96e6"/><path d="m86.814 94.806h195.902v379.077h-195.902z" fill="#69a7ff"/><path d="m432.046 473.883v-141.477l-106.782-95.103-106.781 95.103v141.477z" fill="#ff3d50" fill-rule="evenodd"/><path d="m284.191 368.434h82.148v105.449h-82.148z" fill="#d5e3f2"/><path d="m135.939 346.862a112.025 112.025 0 0 0 -109.928 133.456h219.883a113.748 113.748 0 0 0 2.041-21.459 112 112 0 0 0 -112-112z" fill="#ffd23b" fill-rule="evenodd"/><path d="m116.606 337.48-3.741 76.138a6 6 0 0 0 1.672 4.536 5.894 5.894 0 0 0 4.422 1.9h33.987a6.064 6.064 0 0 0 6.067-6.435l-3.713-76.139a10.55 10.55 0 0 0 -10.346-10.318h-18.03a10.525 10.525 0 0 0 -10.318 10.318z" fill="#ffab02" fill-rule="evenodd"/><path d="m249.891 458.859h-227.877a15.068 15.068 0 0 0 -15.023 15.024 15.061 15.061 0 0 0 15.023 15h227.877a15.038 15.038 0 0 0 15-15 15.044 15.044 0 0 0 -15-15.024z" fill="#ffab02" fill-rule="evenodd"/><path d="m257.715 239.8h-29.65v29.65h29.65zm0-57.062h-29.65v29.651h29.65zm-116.221 0h-29.65v29.651h29.65zm58.111 0h-29.651v29.651h29.651zm58.11-57.033h-29.65v29.651h29.65zm-116.221 0h-29.65v29.651h29.65zm58.111 0h-29.651v29.651h29.651zm-58.111 114.095h-29.65v29.65h29.65zm58.111 0h-29.651v29.65h29.651z" fill="#d5e3f2" fill-rule="evenodd"/><path d="m100.959 352.418v-257.612h-14.145v263.367a114.5 114.5 0 0 1 14.145-5.755z" fill="#5f96e6" fill-rule="evenodd"/><path d="m114.197 59.599h14.116v35.206h-14.116z" fill="#5186d6"/><g fill-rule="evenodd"><path d="m25.784 479.184a15.017 15.017 0 0 1 -10.261-18.822 14.989 14.989 0 0 0 6.491 28.516h227.877a15.077 15.077 0 0 0 14.344-10.6 15.148 15.148 0 0 1 -6.492 1.473h-227.877a14.966 14.966 0 0 1 -4.082-.566z" fill="#ed9e00"/><path d="m39.249 458.859a112.186 112.186 0 0 1 76.365-101.508l.454-8.731a106.078 106.078 0 0 0 -15.109 3.8 114.5 114.5 0 0 0 -14.145 5.755 112.015 112.015 0 0 0 -62.872 100.684z" fill="#e8bd31"/><path d="m155.98 351.71a112.574 112.574 0 0 1 20.919 2.863 111.454 111.454 0 0 0 -21.061-5.953z" fill="#e8bd31"/><path d="m121.68 405.37 2.835-57.941.879-18.2a14.38 14.38 0 0 1 .283-1.984 10.593 10.593 0 0 0 -9.071 10.233l-.538 11.14-.454 8.731-2.749 56.267a6 6 0 0 0 1.672 4.536 5.894 5.894 0 0 0 4.422 1.9h33.987a6.064 6.064 0 0 0 6.067-6.435l-.085-1.842h-31.182a6.061 6.061 0 0 1 -6.066-6.406z" fill="#ed9e00"/><path d="m230.757 354.488v-18.114l8.221-7.285 31.011-27.638 12.727-11.338 50.911-45.326-8.363-7.484-42.548 37.9-17.8 15.845-26.589 23.67-19.843 17.688v50.74a110.965 110.965 0 0 1 12.274 16.072z" fill="#e82e41"/><path d="m343.435 133.017 3.458-13.692 4.2-16.667c3.373-.454 6.775-.794 10.176-1.049a157.413 157.413 0 0 0 -32.258 1.049l-4.195 16.667-3.43 13.692a124.543 124.543 0 0 0 -26.277 9.3l10.6 6.322a125.319 125.319 0 0 1 37.73-15.619z" fill="#334454"/></g><path d="m510.49 234.528a7 7 0 0 0 -5.228-5.84l-26.29-6.626a132.127 132.127 0 0 0 -13.235-31.992l13.895-23.255a7 7 0 0 0 -.435-7.821 162.915 162.915 0 0 0 -31.305-31.306 7 7 0 0 0 -7.821-.434l-23.271 13.894a131.349 131.349 0 0 0 -31.976-13.234l-6.625-26.29a7 7 0 0 0 -5.839-5.227 163.05 163.05 0 0 0 -44.307 0 7 7 0 0 0 -5.838 5.227l-6.626 26.27a132.44 132.44 0 0 0 -25.871 9.955v-42.4a7 7 0 0 0 -7-7h-20.38v-28.2a7 7 0 0 0 -7-7h-63.55v-30.757a7 7 0 1 0 -14 0v30.754h-63.588a7 7 0 0 0 -7 7v28.2h-20.378a7 7 0 0 0 -7 7v259.054a118.868 118.868 0 0 0 -62.692 98.569 21.991 21.991 0 0 0 4.9 43.438h227.862a22.031 22.031 0 0 0 20.846-15h161.3a7 7 0 0 0 7-7v-89.016l1.028.614a7 7 0 0 0 7.829-.435 161.361 161.361 0 0 0 16.686-14.584 158.78 158.78 0 0 0 14.619-16.756 7 7 0 0 0 .425-7.817l-13.894-23.245a131.984 131.984 0 0 0 13.236-31.99l26.3-6.637a7 7 0 0 0 5.217-5.837 163.064 163.064 0 0 0 .006-44.276zm-180.572-1.783a7 7 0 0 0 -9.313 0l-30.888 27.51v-63.561l.289-.3a85.179 85.179 0 0 1 126.625 113.58zm-208.718-165.495h127.133v21.2h-127.133zm-27.381 35.2h181.895v170.276l-61.885 55.117a7 7 0 0 0 -2.345 5.228v34.4a118.308 118.308 0 0 0 -48.911-23.991l-.277-5.69a17.59 17.59 0 0 0 -17.338-16.969h-18.028a17.53 17.53 0 0 0 -17.311 16.989l-.278 5.664a118.665 118.665 0 0 0 -15.518 4.682zm58.156 311.258h-32.067l3.7-75.224v-.028a3.59 3.59 0 0 1 3.324-3.631h18.028a3.6 3.6 0 0 1 3.353 3.656l.532 10.913c0 .049.005.1.007.146zm-62.8-48.29a6.886 6.886 0 0 0 1.241-.589 104.485 104.485 0 0 1 18.2-6.745l-2.745 55.848a12.935 12.935 0 0 0 3.548 9.63 12.756 12.756 0 0 0 9.539 4.15h33.986a13.106 13.106 0 0 0 13.059-13.777l-2.724-55.846a104.373 104.373 0 0 1 49.608 29.917 7.05 7.05 0 0 0 .947 1.029 104.845 104.845 0 0 1 26.839 63.478h-209.466a104.869 104.869 0 0 1 57.974-87.091zm160.717 117.088h-227.868a7.993 7.993 0 1 1 0-15.985h227.868a7.993 7.993 0 1 1 0 15.985zm109.44-14.994h-68.17v-91.412h68.17zm65.7 0h-51.7v-98.412a7 7 0 0 0 -7-7h-82.171a7 7 0 0 0 -7 7v98.414h-6.431a22.071 22.071 0 0 0 -15.97-14.445 118.807 118.807 0 0 0 -29.273-72.013v-44.845l99.776-88.862 99.774 88.862zm72.145-195.266-25.688 6.47a7.006 7.006 0 0 0 -5.118 5.208 118.029 118.029 0 0 1 -14.745 35.645 7 7 0 0 0 -.065 7.284l13.581 22.725a144.151 144.151 0 0 1 -10.464 11.606 146.091 146.091 0 0 1 -11.56 10.434l-4.082-2.439v-36.108a7 7 0 0 0 -2.346-5.228l-9.579-8.532a99.2 99.2 0 0 0 -137.4-141.268v-24.216a118.4 118.4 0 0 1 33.234-13.349 7 7 0 0 0 5.186-5.1l6.482-25.675a149 149 0 0 1 31.173 0l6.481 25.7a7 7 0 0 0 5.2 5.1 117.5 117.5 0 0 1 35.611 14.741 7 7 0 0 0 7.293.069l22.745-13.579a148.922 148.922 0 0 1 22.023 22.023l-13.577 22.711a7 7 0 0 0 .061 7.29 118.225 118.225 0 0 1 14.746 35.648 7 7 0 0 0 5.105 5.2l25.7 6.481a149 149 0 0 1 .007 31.159zm-269.111-52.187h29.649a7 7 0 0 0 7-7v-29.651a7 7 0 0 0 -7-7h-29.649a7 7 0 0 0 -7 7v29.649a7 7 0 0 0 7 7.002zm7-29.649h15.647v15.645h-15.646zm-7-27.41h29.649a7 7 0 0 0 7-7v-29.623a7 7 0 0 0 -7-7h-29.649a7 7 0 0 0 -7 7v29.623a7 7 0 0 0 7 7zm7-29.621h15.647v15.621h-15.646zm-65.108 29.621h29.621a7 7 0 0 0 7-7v-29.623a7 7 0 0 0 -7-7h-29.621a7 7 0 0 0 -7 7v29.623a7 7 0 0 0 7 7zm7-29.621h15.619v15.621h-15.618zm51.107 143.71h29.649a7 7 0 0 0 7-7v-29.65a7 7 0 0 0 -7-7h-29.648a7 7 0 0 0 -7 7v29.649a7 7 0 0 0 7 7.001zm7-29.649h15.647v15.646h-15.645zm-123.215-84.44h29.621a7 7 0 0 0 7-7v-29.623a7 7 0 0 0 -7-7h-29.621a7 7 0 0 0 -7 7v29.623a7 7 0 0 0 7 7zm7-29.621h15.62v15.621h-15.619zm22.62 143.71a7 7 0 0 0 7-7v-29.65a7 7 0 0 0 -7-7h-29.62a7 7 0 0 0 -7 7v29.649a7 7 0 0 0 7 7zm-22.62-29.649h15.62v15.646h-15.619zm51.107 29.649h29.621a7 7 0 0 0 7-7v-29.65a7 7 0 0 0 -7-7h-29.62a7 7 0 0 0 -7 7v29.649a7 7 0 0 0 7 7.001zm7-29.649h15.619v15.646h-15.617zm-65.107-27.381h29.621a7 7 0 0 0 7-7v-29.651a7 7 0 0 0 -7-7h-29.621a7 7 0 0 0 -7 7v29.649a7 7 0 0 0 7 7.002zm7-29.649h15.62v15.645h-15.619zm51.107 29.649h29.621a7 7 0 0 0 7-7v-29.651a7 7 0 0 0 -7-7h-29.62a7 7 0 0 0 -7 7v29.649a7 7 0 0 0 7 7.002zm7-29.649h15.619v15.645h-15.617z"/></svg>