<svg style="opacity: 0.035;" height="512" viewBox="0 0 512 512" width="512" xmlns="http://www.w3.org/2000/svg"><g id="filled_outline" data-name="filled outline"><path d="m112 128v-32h-88v320a32 32 0 0 0 32 32h376v-320z" fill="#fbeebd"/><path d="m328 344h-184a8 8 0 0 1 -8-8v-160h16v152h176z" fill="#ede1b2"/><path d="m248 384h-40a8 8 0 0 1 0-16h40a8 8 0 0 1 0 16z" fill="#cdcdcd"/><path d="m96 264a8 8 0 0 1 -8-8v-40a8 8 0 0 1 16 0v40a8 8 0 0 1 -8 8z" fill="#cdcdcd"/><path d="m392 224h16v96h-16z" fill="#f4e7b7"/><path d="m392 168h16v32h-16z" fill="#f4e7b7"/><path d="m272 152h80v16h-80z" fill="#f4e7b7"/><path d="m56 56h56a0 0 0 0 1 0 0v72a0 0 0 0 1 0 0h-56a32 32 0 0 1 -32-32v-8a32 32 0 0 1 32-32z" fill="#d0c69c"/><path d="m218 368-16 32h-96v-32z" fill="#de4c3b"/><path d="m104 248-32 16v104h32z" fill="#f85542"/><circle cx="88" cy="384" fill="#cdcdcd" r="32"/><circle cx="88" cy="384" fill="#de4c3b" r="16"/><path d="m472 88-22.5-4.5 12.731-19.1-22.631-22.626-19.1 12.732-4.5-22.506h-32l-4.5 22.506-19.1-12.732-22.626 22.626 12.731 19.1-22.505 4.5v32l22.5 4.5-12.731 19.1 22.631 22.625 19.1-12.731 4.5 22.506h32l4.5-22.506 19.1 12.731 22.626-22.625-12.726-19.1 22.5-4.5zm-72 32a16 16 0 1 1 16-16 16 16 0 0 1 -16 16z" fill="#ec9e15"/><path d="m284.421 448h43.579l88-120v120h16v-207.704z" fill="#ede1b2"/><path d="m272 488h216v-304zm160-40h-88l88-120z" fill="#fdb62f"/><g fill="#dc9315"><path d="m464 352h24v16h-24z"/><path d="m464 304h24v16h-24z"/><path d="m464 256h24v16h-24z"/><path d="m464 400h24v16h-24z"/><path d="m464 448h24v16h-24z"/></g><path d="m240 168-64 56h16v64h96v-64h16z" fill="#69b9e7"/><path d="m224 256h32v40h-32z" fill="#fbeebd"/><path d="m232.883 353.633a147.756 147.756 0 0 0 -114.516-114.516l3.266-15.656a163.732 163.732 0 0 1 126.914 126.906z" fill="#97d9a9"/><path d="m400 128a24 24 0 1 0 -24-24 24.027 24.027 0 0 0 24 24zm0-32a8 8 0 1 1 -8 8 8.008 8.008 0 0 1 8-8z"/><path d="m490.434 176.375a8.018 8.018 0 0 0 -8.954 2.992l-41.48 58.38v-63.584a7.92 7.92 0 0 0 5.254-2.28l22.629-22.633a7.994 7.994 0 0 0 1-10.094l-6.1-9.156 10.789-2.156a8 8 0 0 0 6.428-7.844v-32a8 8 0 0 0 -6.43-7.844l-10.793-2.156 6.106-9.164a8 8 0 0 0 -1-10.094l-22.629-22.625a8.019 8.019 0 0 0 -10.094-1l-9.16 6.11-2.16-10.8a8 8 0 0 0 -7.84-6.427h-32a8 8 0 0 0 -7.844 6.43l-2.156 10.797-9.156-6.11a7.99 7.99 0 0 0 -10.094 1l-22.633 22.625a8 8 0 0 0 -1 10.094l6.106 9.164-10.793 2.156a8 8 0 0 0 -6.43 7.844v32h-200v-64a8 8 0 0 0 -8-8h-56a40.047 40.047 0 0 0 -40 40v328a40.047 40.047 0 0 0 40 40h228.926l-19.446 27.367a8 8 0 0 0 6.52 12.633h216a8 8 0 0 0 8-8v-304a8.005 8.005 0 0 0 -5.566-7.625zm-154.434-81.813 16.074-3.218a8 8 0 0 0 5.086-12.282l-9.094-13.64 13.356-13.352 13.64 9.094a8 8 0 0 0 12.282-5.086l3.215-16.078h18.882l3.215 16.078a8 8 0 0 0 12.282 5.086l13.64-9.094 13.356 13.352-9.094 13.64a8 8 0 0 0 5.086 12.282l16.074 3.218v18.876l-16.074 3.218a8 8 0 0 0 -5.086 12.282l9.094 13.64-13.356 13.352-13.64-9.094a8 8 0 0 0 -12.282 5.086l-3.215 16.078h-18.882l-3.215-16.078a8 8 0 0 0 -12.282-5.086l-13.64 9.094-13.356-13.352 9.094-13.64a8 8 0 0 0 -5.086-12.282l-16.074-3.218zm-304-6.562a24.027 24.027 0 0 1 24-24h48v56h-48a24.027 24.027 0 0 1 -24-24zm24 352a24.027 24.027 0 0 1 -24-24v-288.2a39.607 39.607 0 0 0 24 8.2h277.22l-2.1 3.156a7.994 7.994 0 0 0 1 10.094l2.75 2.75h-62.87v16h78.864l3.882 3.883a7.99 7.99 0 0 0 10.094 1l9.156-6.11 2.16 10.8a8 8 0 0 0 7.844 6.427h8v16h16v-16h8a8 8 0 0 0 7.844-6.43l.156-.78v83.476l-16 22.518v-58.784h-16v81.3l-95.706 134.7zm231.5 40 192.5-270.93v46.93h-16v16h16v32h-16v16h16v32h-16v16h16v32h-16v16h16v32h-16v16h16v16z"/><path d="m434.488 320.4a7.953 7.953 0 0 0 -8.941 2.868l-88 120a8 8 0 0 0 6.453 12.732h88a8 8 0 0 0 8-8v-120a8 8 0 0 0 -5.512-7.6zm-10.488 119.6h-64.211l64.211-87.562z"/><path d="m248 368h-22.038a7.919 7.919 0 0 0 -7.962-8h-98.2a40.084 40.084 0 0 0 -7.8-7.8v-104.2a7.914 7.914 0 0 0 -8-7.962v-24.038a8 8 0 0 0 -16 0v31.055l-19.578 9.789a8 8 0 0 0 -4.422 7.156v88.2a39.863 39.863 0 1 0 55.8 55.8h82.2a8 8 0 0 0 7.156-4.422l9.789-19.578h29.055a8 8 0 0 0 0-16zm-168-99.055 16-8v83.864a39.96 39.96 0 0 0 -16 0zm8 139.055a24 24 0 1 1 24-24 24.027 24.027 0 0 1 -24 24zm109.055-16h-69.864a39.96 39.96 0 0 0 0-16h77.864z"/><path d="m226.457 296h61.543a8 8 0 0 0 8-8v-56h8a8 8 0 0 0 5.27-14.023l-64-56a8 8 0 0 0 -10.54 0l-64 56a8 8 0 0 0 5.27 14.023h8v19.026a163.383 163.383 0 0 0 -32-17.984v-57.042h-16v51.217c-4.711-1.436-9.482-2.738-14.367-3.756l-3.266 15.656a147.876 147.876 0 0 1 17.633 4.918v91.965a8 8 0 0 0 8 8h86.5c.887 3.172 1.7 6.376 2.383 9.633l15.664-3.266c-.449-2.153-1.044-4.247-1.575-6.367h81.028v-16h-85.829a163.478 163.478 0 0 0 -15.714-32zm5.543-16v-16h16v16zm8-101.367 42.707 37.367h-85.414zm-40 53.367h80v48h-16v-24a8 8 0 0 0 -8-8h-32a8 8 0 0 0 -8 8v24h-1.21a163.883 163.883 0 0 0 -14.79-15.774zm-48 96v-77.438a147.614 147.614 0 0 1 32 20.738v16.7a8 8 0 0 0 8 8h15.062a147.5 147.5 0 0 1 17.9 32z"/></g></svg>