<?xml version="1.0" encoding="UTF-8"?> <svg xmlns="http://www.w3.org/2000/svg" xmlns:xlink="http://www.w3.org/1999/xlink" id="Layer_1" x="0px" y="0px" viewBox="0 0 374.3 185" style="enable-background:new 0 0 374.3 185;" xml:space="preserve"> <style type="text/css"> .st0{fill:#FFFFFF;} .st1{fill:#CE0E2D;} </style> <g> <path class="st0" d="M114.7,165.7c0,10.4-8.5,18.9-18.9,18.9c-10.4,0-18.9-8.5-18.9-18.9c0-10.4,8.5-18.9,18.9-18.9 C106.2,146.8,114.7,155.3,114.7,165.7z"></path> </g> <g> <path class="st0" d="M315.3,11.9c0,6.5-5.3,11.9-11.9,11.9c-6.5,0-11.9-5.3-11.9-11.9c0-6.5,5.3-11.9,11.9-11.9 C310,0,315.3,5.3,315.3,11.9z"></path> </g> <g> <path class="st0" d="M355.6,12.2c-2.2-4.7-9-7.1-20.2-7.1c-33.5,0-101.4,21.1-173,53.9c-47.3,21.6-90.2,45.5-120.7,67.2 c-30.7,21.8-45.3,39-41,48.3c2.2,4.7,9,7.1,20.2,7.1c33.5,0,101.4-21.1,173-53.9c15.7-7.2,30.9-14.6,45.4-22.1 c-0.2-0.3-0.3-0.6-0.5-0.9c-14.4,7.5-29.6,14.9-45.3,22.1C122,159.5,54.3,180.6,20.9,180.6c-10.8,0-17.3-2.2-19.2-6.6 c-4-8.7,10.9-25.9,40.7-47.1c30.5-21.7,73.3-45.5,120.5-67.1C234.3,27.2,302.1,6.1,335.5,6.1c10.8,0,17.3,2.2,19.2,6.6 c4,8.7-10.9,25.9-40.7,47.1c-9.5,6.7-20.1,13.7-31.7,20.7c-0.3,0.5-0.6,0.9-0.9,1.3c-0.2,0.2-0.3,0.4-0.5,0.7 c12.4-7.4,23.7-14.8,33.7-21.9C345.3,38.7,359.9,21.5,355.6,12.2z"></path> </g> <g> <path class="st0" d="M287.4,126.3V66.7h30.8v6c2.5-2.4,5.2-4.1,8.1-5.2c3-1.1,6.2-1.7,9.8-1.7c7.3,0,12.8,1.8,16.6,5.3 c3.8,3.5,5.6,8.7,5.6,15.4v39.8h-29.2V91.3c0-2.8-0.5-4.8-1.5-6c-1-1.2-2.6-1.9-4.8-1.9c-0.8,0-1.6,0.2-2.3,0.5 c-0.7,0.3-1.5,0.8-2.2,1.6v40.8H287.4L287.4,126.3z"></path> </g> <g> <path class="st0" d="M196.3,57.9c0-2.5,0.9-4.5,2.6-6.2c1.7-1.7,3.8-2.5,6.2-2.5c2.5,0,4.5,0.9,6.2,2.5c1.7,1.7,2.5,3.8,2.5,6.2 c0,2.5-0.9,4.5-2.5,6.3c-1.7,1.7-3.8,2.5-6.2,2.5c-2.4,0-4.5-0.9-6.2-2.5C197.1,62.4,196.3,60.4,196.3,57.9L196.3,57.9z"></path> </g> <g> <path class="st0" d="M220.5,126.3h-31V66.7c2.5,1.3,5,2.2,7.6,2.8c2.6,0.6,5.3,0.9,8.2,0.9c2.6,0,5.1-0.3,7.7-0.9 c2.5-0.6,5-1.6,7.5-2.8V126.3L220.5,126.3z"></path> </g> <g> <path class="st0" d="M130.4,120.3l6.7-16.8c2.8,3.1,5.6,5.4,8.4,6.9c2.8,1.6,5.5,2.3,8.1,2.3c1.7,0,3.1-0.3,4-1 c0.9-0.7,1.4-1.6,1.4-2.9c0-2.5-2.9-4.7-8.7-6.7c-1-0.3-1.8-0.6-2.3-0.8c-5.3-1.9-9.2-4.2-11.8-7.1c-2.5-2.9-3.8-6.4-3.8-10.6 c0-5.8,2.5-10.3,7.5-13.5c5-3.2,12.1-4.7,21.4-4.7c5.1,0,10,0.4,14.5,1.2c4.5,0.8,8.9,2.1,13,3.8L181.1,86 c-2.9-2.4-5.4-4.1-7.7-5.2c-2.2-1.1-4.4-1.6-6.4-1.6c-1.6,0-2.8,0.3-3.6,1c-0.9,0.7-1.3,1.7-1.3,2.9c0,0.6,0.2,1.2,0.5,1.8 c0.3,0.6,0.8,1.2,1.4,1.7c0.8,0.7,2.6,1.5,5.5,2.2c2.9,0.8,5,1.4,6.4,1.8c5.1,1.8,8.8,4,11.2,6.7c2.4,2.7,3.6,5.9,3.6,9.8 c0,6.1-2.6,11.1-7.9,14.7c-5.2,3.7-12.3,5.5-21.3,5.5c-5.6,0-10.9-0.6-16.1-1.8C140.3,124.5,135.3,122.7,130.4,120.3L130.4,120.3z"></path> </g> <g> <path class="st0" d="M133,66.7v59.6h-30.4v-5.7c-2.4,2.4-5.1,4.1-8,5.3c-2.9,1.1-6.2,1.7-9.8,1.7c-7.2,0-12.7-1.8-16.4-5.3 c-3.8-3.6-5.6-8.7-5.6-15.5v-40h29V102c0,2.8,0.5,4.8,1.5,6c1,1.2,2.6,1.8,4.7,1.8c0.9,0,1.7-0.2,2.4-0.5c0.7-0.3,1.5-0.9,2.2-1.5 V66.7H133L133,66.7z"></path> </g> <g> <polygon class="st0" points="2.3,126.3 2.3,51.1 65.2,51.1 65.2,69.4 36.7,69.4 36.7,83 57.9,83 57.9,102.2 36.7,102.2 36.7,126.3 2.3,126.3 "></polygon> </g> <g> <polygon class="st0" points="363.3,120.8 368.1,120.8 368.1,121.6 366.1,121.6 366.1,127.4 365.2,127.4 365.2,121.6 363.3,121.6 363.3,120.8 "></polygon> </g> <g> <polygon class="st0" points="373.5,120.8 374.3,120.8 374.3,127.4 373.4,127.4 373.4,122.3 371.7,124.8 371.5,124.8 369.7,122.3 369.7,127.4 368.9,127.4 368.9,120.8 369.6,120.8 371.6,123.5 373.5,120.8 "></polygon> </g> <g> <ellipse transform="matrix(0.9239 -0.3827 0.3827 0.9239 -13.393 93.7836)" class="st1" cx="229" cy="80.6" rx="8.9" ry="8.9"></ellipse> </g> <g> <path class="st1" d="M252.3,62.5c0,4.9-4,8.9-8.9,8.9c-4.9,0-8.9-4-8.9-8.9c0-4.9,4-8.9,8.9-8.9C248.4,53.6,252.3,57.6,252.3,62.5z "></path> </g> <g> <ellipse transform="matrix(0.2298 -0.9732 0.9732 0.2298 145.8656 306.4628)" class="st1" cx="266.5" cy="61.1" rx="8.9" ry="8.9"></ellipse> </g> <g> <circle class="st1" cx="284.2" cy="75.3" r="8.9"></circle> </g> <g> <path class="st1" d="M295,98c0,4.9-4,8.9-8.9,8.9c-4.9,0-8.9-4-8.9-8.9c0-4.9,4-8.9,8.9-8.9C291,89.1,295,93.1,295,98z"></path> </g> <g> <path class="st1" d="M280.6,116.1c0,4.9-4,8.9-8.9,8.9c-4.9,0-8.9-4-8.9-8.9c0-4.9,4-8.9,8.9-8.9 C276.6,107.1,280.6,111.1,280.6,116.1z"></path> </g> <g> <circle class="st1" cx="248.5" cy="117.7" r="8.9"></circle> </g> <g> <path class="st1" d="M239.4,103.3c0,4.9-4,8.9-8.9,8.9c-4.9,0-8.9-4-8.9-8.9c0-4.9,4-8.9,8.9-8.9 C235.4,94.4,239.4,98.4,239.4,103.3z"></path> </g> <g> <path class="st1" d="M218.7,112.1c0,2.6-2.1,4.6-4.6,4.6c-2.6,0-4.6-2.1-4.6-4.6c0-2.6,2.1-4.6,4.6-4.6 C216.6,107.5,218.7,109.6,218.7,112.1z"></path> </g> <g> <path class="st1" d="M239.6,46.1c0,2.6-2.1,4.6-4.6,4.6c-2.6,0-4.6-2.1-4.6-4.6c0-2.6,2.1-4.6,4.6-4.6 C237.5,41.4,239.6,43.5,239.6,46.1z"></path> </g> <g> <path class="st1" d="M305.7,66.4c0,2.6-2.1,4.6-4.6,4.6c-2.6,0-4.6-2.1-4.6-4.6c0-2.6,2.1-4.6,4.6-4.6 C303.6,61.8,305.7,63.9,305.7,66.4z"></path> </g> <g> <path class="st1" d="M284.9,132.7c0,2.6-2.1,4.6-4.6,4.6s-4.6-2.1-4.6-4.6c0-2.6,2.1-4.6,4.6-4.6S284.9,130.2,284.9,132.7z"></path> </g> <polygon class="st0" points="255.6,91.3 241.7,56.9 260.1,89.1 "></polygon> <polygon class="st0" points="257.1,86.5 289.6,99.1 255.6,91.3 "></polygon> <g> <path class="st0" d="M204,143.1l-4.7,9.5c-0.5-0.9-1.1-1.7-1.8-2.4c-0.7-0.7-1.5-1-2.5-1c-1.9,0-3.7,1.4-5.3,4.2l-2.6,17.3h-9.8 l4.5-30.2h9.8l-0.6,4.3c2.7-3.2,5.1-4.9,7.2-4.9c1.1,0,2.1,0.3,3,0.8S203,142.1,204,143.1z"></path> <path class="st0" d="M235.3,141l-4.6,29.8h-9.8l0.5-2.7c-1.1,1-2.3,1.8-3.3,2.4c-1.1,0.6-2.5,0.9-4.1,0.9c-2.1,0-4-0.6-5.7-1.8 c-1.6-1.2-2.9-2.8-3.8-4.8c-0.9-2-1.3-4.2-1.3-6.5c0-2,0.3-4,1-6c0.6-2,1.8-4,3.4-5.9c1.7-1.9,4-3.4,7-4.5c3-1.2,6.7-1.7,11.1-1.7 c1.9,0,3.4,0.1,4.6,0.2S233,140.6,235.3,141z M224.6,147.3h-1.8c-1.8,0-3.4,0.5-4.9,1.5c-1.5,1-2.6,2.4-3.5,4.1 c-0.8,1.7-1.2,3.6-1.2,5.6c0,1.4,0.3,2.5,1,3.5c0.7,1,1.7,1.4,3,1.4c0.6,0,1.3-0.2,2.2-0.5c0.8-0.3,1.8-0.9,3.1-1.7L224.6,147.3z"></path> <path class="st0" d="M267.6,141.1l-1.3,9.3c-1.9-0.6-3.2-1-3.6-1.1c-1.1-0.3-2.3-0.4-3.5-0.4c-2.3,0-4.1,0.4-5.6,1.3 c-1.4,0.9-2.5,1.9-3.1,3.2c-0.7,1.3-1,2.4-1,3.4c0,1.3,0.5,2.6,1.4,3.9c0.9,1.2,2.7,1.9,5.5,1.9c1.4,0,2.8-0.2,4.2-0.6 c1.4-0.4,3.2-1.1,5.5-2.2l-1.6,10.1c-1.2,0.4-2.2,0.7-3,0.9s-1.6,0.3-2.5,0.4c-0.9,0.1-1.8,0.1-2.8,0.1c-6.5,0-10.9-1.6-13.3-4.7 s-3.5-6.4-3.5-9.9c0-2.2,0.6-4.6,1.7-7.2c1.1-2.6,3.2-4.8,6-6.7c2.9-1.9,6.7-2.8,11.6-2.8C261.5,140,264.5,140.4,267.6,141.1z"></path> <path class="st0" d="M284.5,140.6l-4.3,30.2h-10l4.3-30.2H284.5z"></path> <path class="st0" d="M320.6,149.2c0,0.6-0.1,1.7-0.3,3.4l-2.7,18.2h-9.8l2.7-18.8c0-0.2,0.1-0.6,0.1-1c0-1.9-0.8-2.8-2.5-2.8 c-1,0-2,0.3-3,1s-2.3,1.8-4,3.4l-2.7,18.3h-9.9l4.5-30.2h9.8l-0.5,3.5c1.8-1.3,3.4-2.3,4.8-3c1.4-0.7,3.1-1.1,5.1-1.1 c3.1,0,5.3,1,6.5,2.9C320,144.8,320.6,146.9,320.6,149.2z"></path> <path class="st0" d="M356.7,140.6l-0.9,6.7h-4.3c0.5,1.5,0.8,3,0.8,4.3c0,2.1-0.5,3.9-1.5,5.5s-2.5,2.8-4.5,3.7 c-2,0.9-4.4,1.3-7.3,1.3h-1.7c-1,0-1.7,0.2-2.3,0.5c-0.6,0.3-0.8,0.8-0.8,1.4c0,0.5,0.1,0.9,0.4,1.1c0.3,0.2,0.9,0.5,2,0.7 c1,0.2,2.8,0.6,5.2,1.1c7,1.3,10.6,4.2,10.6,8.8c0,1.5-0.4,2.9-1.1,4.3c-0.7,1.4-2.2,2.6-4.5,3.6c-2.3,1-5.5,1.5-9.7,1.5 c-2.3,0-4.4-0.1-6.2-0.3c-1.8-0.2-3.4-0.6-4.7-1.1c-1.3-0.5-2.4-1.3-3.1-2.3s-1.1-2.3-1.1-3.8c0-2.9,2.2-5.2,6.7-6.7 c-1.1-0.6-2-1.3-2.7-2c-0.7-0.7-1-1.7-1-3.1c0-2.8,2.2-4.6,6.5-5.2c-1.8-0.8-3.2-2-4.2-3.8s-1.5-3.6-1.5-5.4c0-1.1,0.2-2.3,0.7-3.6 c0.4-1.2,1.2-2.4,2.2-3.5s2.4-2,4-2.6c1.7-0.7,3.7-1,6.1-1H356.7z M343.2,177.1c0-0.9-0.4-1.6-1.3-1.9c-0.9-0.3-2.8-0.7-5.6-1.1 l-1.9-0.3c-1.4,0.6-2.4,1.1-2.9,1.4s-0.8,0.9-0.8,1.5c0,0.9,0.5,1.5,1.6,1.9c1.1,0.4,2.7,0.6,5,0.6c2.3,0,3.8-0.2,4.6-0.6 C342.8,178.3,343.2,177.8,343.2,177.1z M343.1,150.4c0-1.3-0.3-2.3-0.9-3.1c-0.6-0.7-1.5-1.1-2.6-1.1c-1.7,0-2.9,0.7-3.5,2.1 c-0.7,1.4-1,2.7-1,3.9c0,1.3,0.4,2.4,1.1,3.1s1.6,1.1,2.6,1.1c1.6,0,2.7-0.6,3.4-1.9C342.7,153.2,343.1,151.9,343.1,150.4z"></path> </g> </svg> 